<?xml version="1.0" encoding="utf-8"?>
<!-- Generator: Adobe Illustrator 25.0.0, SVG Export Plug-In . SVG Version: 6.00 Build 0)  -->
<svg version="1.1" id="图层_1" xmlns="http://www.w3.org/2000/svg" xmlns:xlink="http://www.w3.org/1999/xlink" x="0px" y="0px"
	 viewBox="0 0 30 31" style="enable-background:new 0 0 30 31;" xml:space="preserve">
<style type="text/css">
	.st0{fill:none;}
	.st1{filter:url(#Adobe_OpacityMaskFilter);}
	.st2{fill-rule:evenodd;clip-rule:evenodd;fill:#FFFFFF;}
	.st3{mask:url(#mask-2_1_);}
	.st4{fill:none;stroke:#282828;stroke-width:1.7;stroke-linecap:round;stroke-linejoin:round;}
	.st5{fill:#282828;}
</style>
<g id="主站">
	<g id="文章详情页" transform="translate(-565.000000, -1740.000000)">
		<g id="编组" transform="translate(155.000000, 196.000000)">
			<g id="编组-2" transform="translate(365.000000, 1530.000000)">
				<g id="icon_x2F_点赞_x5F_详情页" transform="translate(45.000000, 14.000000)">
					<g id="分组-5">
						<rect id="矩形" class="st0" width="30" height="30"/>
						<g id="Group-5">
							<g id="Group-2-Copy-7">
								<g id="Mask">
								</g>
								<defs>
									<filter id="Adobe_OpacityMaskFilter" filterUnits="userSpaceOnUse" x="2.5" y="1.1" width="25" height="24.8">
										<feColorMatrix  type="matrix" values="1 0 0 0 0  0 1 0 0 0  0 0 1 0 0  0 0 0 1 0"/>
									</filter>
								</defs>
								<mask maskUnits="userSpaceOnUse" x="2.5" y="1.1" width="25" height="24.8" id="mask-2_1_">
									<g class="st1">
										<rect id="path-1_1_" x="0" y="0.1" class="st2" width="29" height="29"/>
									</g>
								</mask>
								<g class="st3">
									<g transform="translate(2.548763, 0.518832)">
										<path id="Combined-Shape" class="st4" d="M15.7,1.7c-0.6-0.3-1.3-0.3-1.9-0.1c-0.6,0.3-1.2,0.8-1.5,1.5
											c-0.3,0.7-0.9,1.8-1.6,3.1C9.4,8.5,6.9,9.9,4.3,9.9l-2,0c-0.4,0-0.8,0.2-1,0.4C1,10.6,0.9,11,0.9,11.4v11.7
											c0,0.4,0.2,0.8,0.4,1.1c0.3,0.3,0.6,0.4,1,0.4l17.1-0.3c0.6,0,1.1-0.2,1.5-0.6c0.6-0.5,1-1.1,1.1-1.6
											c1.3-5.8,2-8.9,2.1-9.3c0.2-0.9,0-1.6-0.4-2.1c-0.5-0.5-1.3-0.8-2.1-0.7c-1.8,0.1-3.3,0-4.2,0c-0.3,0-1.4,0-2.2,0
											c-0.4,0-0.7-0.5-0.4-0.8c0.3-0.5,0.7-1,0.8-1.2c0.4-0.6,1.1-1.7,1.3-3c0.1-0.9,0.2-1.6,0-2.1C16.7,2.4,16.3,2.1,15.7,1.7z
											"/>
										<path id="Path-2" class="st5" d="M5,10.3v13.4c0,0.5,0.4,0.8,0.9,0.8c0.5,0,0.8-0.4,0.8-0.8V10.3c0-0.5-0.4-0.8-0.8-0.8
											C5.3,9.5,5,9.9,5,10.3z"/>
									</g>
								</g>
							</g>
						</g>
					</g>
				</g>
			</g>
		</g>
	</g>
</g>
</svg>
