<?xml version="1.0" encoding="UTF-8"?>
<svg width="14px" height="13px" viewBox="0 0 14 13" version="1.1" xmlns="http://www.w3.org/2000/svg" xmlns:xlink="http://www.w3.org/1999/xlink">
    <title>icon/举报</title>
    <g id="20210305_4.5优化" stroke="none" stroke-width="1" fill="none" fill-rule="evenodd">
        <g id="作品详情页评论_举报优化" transform="translate(-1030.000000, -793.000000)">
            <g id="icon-举报" transform="translate(1025.000000, 751.000000)">
                <g id="编组" transform="translate(2.000000, 38.000000)">
                    <g id="jubaoqian" transform="translate(3.000000, 4.000000)">
                        <path d="M7,0.8 C7.45454545,0.8 7.91258637,1.01389406 8.16649303,1.44914194 L8.16649303,1.44914194 L13.1681105,10.1519355 C13.288756,10.3587562 13.3439847,10.5778673 13.3427169,10.7917682 C13.3413493,11.0225171 13.2750365,11.2465169 13.1592039,11.4419844 C12.9315879,11.8260864 12.5113016,12.1 12,12.1 L12,12.1 L1.98067884,12.1 C1.74180907,12.1201716 1.52306599,12.070468 1.33606612,11.9699571 C1.13297783,11.8607988 0.967488421,11.6933985 0.850562302,11.4960857 C0.729483302,11.2917649 0.660019086,11.0547192 0.657341475,10.8119638 C0.654886947,10.5894335 0.709262593,10.362153 0.833506972,10.1491419 L0.833506972,10.1491419 L5.83188945,1.45193551 C6.08741363,1.01389406 6.54545455,0.8 7,0.8 Z" id="合并形状" stroke="#999999"></path>
                        <path d="M6.2,7.4 L6,3.99603876 C6,3.49603876 6.4,2.99603876 7,2.99603876 C7.6,2.99603876 8,3.39603876 8,3.99603876 L7.8,7.4 C7.8,8 7.47493095,8.4 7,8.4 C6.56092359,8.4 6.2,8 6.2,7.4 Z" id="XMLID_1748_" fill="#999999"></path>
                        <circle id="XMLID_1749_" fill="#999999" cx="7" cy="10.2" r="1"></circle>
                    </g>
                </g>
            </g>
        </g>
    </g>
</svg>